<svg xmlns="http://www.w3.org/2000/svg" xmlns:xlink="http://www.w3.org/1999/xlink" viewBox="0 0 453 166"><defs><style>.cls-1{fill:none;opacity:0;}.cls-2{fill:#212121;}.cls-3{fill:url(#Безымянный_градиент);}.cls-4{fill:url(#Безымянный_градиент_2);}.cls-5{fill:#fb6107;}.cls-6{fill:#fda265;}</style><linearGradient id="Безымянный_градиент" x1="84.04" y1="86.54" x2="65.55" y2="55.29" gradientTransform="matrix(1, 0, 0, -1, 0, 168)" gradientUnits="userSpaceOnUse"><stop offset="0" stop-color="#00a35e"/><stop offset="0.29" stop-color="#037947"/><stop offset="1" stop-color="#006137"/></linearGradient><linearGradient id="Безымянный_градиент_2" x1="56.06" y1="86" x2="66.81" y2="69.1" gradientTransform="matrix(1, 0, 0, -1, 0, 168)" gradientUnits="userSpaceOnUse"><stop offset="0" stop-color="#86e49f"/><stop offset="0.27" stop-color="#86dd93"/><stop offset="1" stop-color="#259453"/></linearGradient></defs><g id="Слой_2" data-name="Слой 2"><g id="am_logo_colour_h_rgb"><g id="_03_Symbol_Full_Name_Right_01_Color" data-name="03 Symbol + Full Name Right / 01 Color"><rect id="Clear_space" data-name="Clear space" class="cls-1" width="453" height="166"/><g id="Text"><path class="cls-2" d="M137.66,70.55,128.87,96h5.77l1.89-5.8h9.18L147.6,96h5.77L144.6,70.55ZM137.9,86,141,76.36h.2L144.36,86Zm29.88,3.89h-.24l-6.15-19.33h-6L164.2,96h6.93l8.78-25.45h-6Zm24.07-4.4h10.89V81.05H191.85V75h11.77V70.55H186.47V96h17.2V91.56H191.85Zm35.49,1.07h-.23l-11-16H211.4V96h5.38V80H217L228,96h4.65V70.55h-5.35Zm32.49-12.81V70.55H240.34V75h12.73L240.36,92.81V96h19.49V91.56H247.11Zm15.06-3.19L266.1,96h5.77l1.89-5.8H283l1.88,5.8h5.77l-8.77-25.45ZM275.13,86l3.13-9.63h.2L281.59,86Zm47.71,5.68h-.29L313.9,70.55h-3.68V96h2.88V76.66h.25L321.3,96h2.79l8-19.34h.25V96h2.88V70.55h-3.68ZM352,70.55,342.67,96h3.23l2.56-7.21h10.29L361.31,96h3.23L355.2,70.55Zm-2.58,15.51,4.08-11.49h.19l4.08,11.49Zm31.18-15.51H372V96h3.08V86.7h5.57c5.93,0,8.6-3.6,8.6-8.1S386.59,70.55,380.61,70.55ZM380.56,84h-5.47V73.28h5.42c4.14,0,5.72,2.26,5.72,5.32S384.65,84,380.56,84Zm27.26-1.89-2.59-.7c-1.89-.49-4.92-1.49-4.92-4.22,0-2.44,2.24-4.23,5.62-4.23,3.08,0,5.42,1.47,5.71,4h3c-.14-3.84-3.68-6.71-8.6-6.71s-8.7,2.83-8.7,7.11c0,3.43,2.48,5.47,6.46,6.61l3.13.89c2.69.75,5.07,1.69,5.07,4.23,0,2.78-2.68,4.62-6.21,4.62-3,0-5.72-1.34-6-4.22h-3.18c.3,4.17,3.68,7,9.15,7,5.86,0,9.2-3.23,9.2-7.36C415,84.32,410.45,82.78,407.82,82.08Z"/></g><g id="_01_Symbol_01_Color" data-name="01 Symbol / 01 Color"><path class="cls-3" d="M71,73.65c-.57.72-1.19,1.45-1.71,2.17a45.34,45.34,0,0,0-4.54,6.87A9.15,9.15,0,0,0,64,84.5a2.65,2.65,0,0,0-.15.82,1.5,1.5,0,0,0,.1.68,3.61,3.61,0,0,0,.93,1.24,12.36,12.36,0,0,0,1.55,1.13c1.14.72,2.38,1.34,3.62,2s2.53,1.3,3.82,2.07a22.17,22.17,0,0,1,1.91,1.34,6.61,6.61,0,0,1,1.7,2A4.27,4.27,0,0,1,78,97.2,5.79,5.79,0,0,1,78,98.8a6.19,6.19,0,0,1-1.19,2.74,11.62,11.62,0,0,1-1.75,1.81,19.43,19.43,0,0,1-1.76,1.39c-1.19.88-2.32,1.66-3.41,2.48a46,46,0,0,0-6.09,5.17,31.56,31.56,0,0,0-2.43,2.73,143.56,143.56,0,0,1,8.83,14.78C79.9,111.2,90.8,100.46,97.62,90Z"/><path class="cls-4" d="M70.91,101.39a14.32,14.32,0,0,0,3-2.12,1.92,1.92,0,0,0,.62-1,1.33,1.33,0,0,0,0-1,7.18,7.18,0,0,0-2.33-2.48,40.13,40.13,0,0,0-3.41-2.22c-1.18-.73-2.42-1.45-3.61-2.33a11.58,11.58,0,0,1-1.76-1.5A5,5,0,0,1,62,86.56a3,3,0,0,1-.1-1.39A4.26,4.26,0,0,1,62.19,84a13.13,13.13,0,0,1,.93-2.06,28.21,28.21,0,0,1,2.37-3.62c.83-1.14,1.71-2.27,2.64-3.36.36-.41.72-.88,1.13-1.29L42.71,90.13c4,6,9.3,12.24,15,20a27.34,27.34,0,0,1,2.22-1.86,60.9,60.9,0,0,1,7.34-4.86C68.54,102.73,69.78,102.06,70.91,101.39Z"/><path class="cls-5" d="M70.09,52A18.1,18.1,0,0,0,52,70.09a18.65,18.65,0,0,0,1.5,7.23l15.18-9.45a2.6,2.6,0,0,1,2.74,0l15.24,9.45a17.78,17.78,0,0,0,1.49-7.23A18.09,18.09,0,0,0,70.09,52Z"/><path class="cls-6" d="M70.09,36A34.06,34.06,0,0,0,36,70.09a32.53,32.53,0,0,0,4.08,15.6l9-5.63a22.94,22.94,0,0,1-2.27-10,23.24,23.24,0,1,1,44.21,10l9,5.63a32.53,32.53,0,0,0,4.08-15.6A34.06,34.06,0,0,0,70.09,36Z"/></g><g id="Show_Hide_Registered_trademark_symbol" data-name="Show/Hide Registered trademark symbol"><path class="cls-2" d="M426,72a7,7,0,1,0-7-7A7,7,0,0,0,426,72Zm0-1.3a5.7,5.7,0,1,1,5.7-5.7A5.7,5.7,0,0,1,426,70.7Zm-2.37-2.55h1.13V65.83h1.77l1.21,2.32H429l-1.37-2.56a2.08,2.08,0,0,0,1.11-1.88,2,2,0,0,0-2-2h-3.1Zm1.13-3.2V62.58h1.63a1,1,0,0,1,1.12,1.13A1.15,1.15,0,0,1,426.36,65Z"/></g></g></g></g></svg>