<svg id="logo_negro" data-name="logo negro" xmlns="http://www.w3.org/2000/svg" viewBox="0 0 59.86 14.72"><defs><style>.cls-1{fill:#f8e250;}.cls-1,.cls-2,.cls-3,.cls-4{stroke:#1d1d1b;stroke-width:0.5px;}.cls-2{fill:#d35a34;}.cls-3{fill:#5ea54d;}.cls-4{fill:#2d5ca2;}.cls-5{fill:#1d1d1b;}</style></defs><g id="logo"><rect class="cls-1" x="0.87" y="0.76" width="3.24" height="3.24"/><rect class="cls-2" x="7.35" y="0.76" width="6.47" height="6.47"/><rect class="cls-3" x="0.87" y="7.23" width="6.48" height="6.48"/><rect class="cls-4" x="4.11" y="4" width="6.48" height="6.48"/><polygon class="cls-5" points="22.1 8.51 22.1 10.67 19.16 10.67 19.16 13.71 15.92 13.71 15.92 5.48 22.76 5.48 22.76 7.64 19.11 7.64 19.11 8.51 22.1 8.51"/><path class="cls-5" d="M26.3,9.6a1.91,1.91,0,1,0,3.82,0,1.91,1.91,0,1,0-3.82,0Zm7.06,0c0,3-2.53,4.27-5.15,4.27s-5.15-1.24-5.15-4.27,2.53-4.29,5.15-4.29,5.15,1.24,5.15,4.29"/><path class="cls-5" d="M41.41,13.71c-.76,0-1.92.16-2.26.16C36.53,13.87,34,12.63,34,9.6s2.53-4.29,5.15-4.29a15.4,15.4,0,0,1,2.18.24l.26,2.32a6.58,6.58,0,0,0-1.9-.32A2.19,2.19,0,0,0,37.23,9.6a2,2,0,0,0,1.92,2,9.43,9.43,0,0,0,2.49-.32Z"/><path class="cls-5" d="M46,5.48V10c0,.89.19,1.5,1.1,1.5s1.1-.61,1.1-1.5V5.48h3.23v5.85c0,1.28-1.31,2.54-4.33,2.54s-4.33-1.26-4.33-2.54V5.48Z"/><path class="cls-5" d="M58.66,8a5.12,5.12,0,0,0-1.87-.41c-.25,0-.89,0-.89.38,0,.74,2.92,1.63,2.92,3.46,0,1.18-.75,2.48-3.35,2.48-.67,0-1.73-.16-2.6-.25l-.38-2.48a5.82,5.82,0,0,0,2.19.5c.27,0,.91,0,.91-.34,0-.7-2.93-1.79-2.93-3.66,0-1.29,1-2.33,3-2.33a13.33,13.33,0,0,1,2.69.26Z"/></g></svg>