<?xml version='1.0' encoding='ASCII' standalone='yes'?>
<svg xmlns="http://www.w3.org/2000/svg" xmlns:xlink="http://www.w3.org/1999/xlink" version="1.1" width="1500px" viewBox="0 0 33.0 33.0" height="1500px">
  <g>
    <g><rect fill="white" x="0" y="0" width="100%" height="100%"/>
  <path d="M4,2 A2,2 0 0 0 2,4 L3.3,4 A1,1 0 0 1 4,3.3 ZM4,2H4.9V2.9H4zM4.4,2H5.3V2.9H4.4zM4.4,2.4H5.3V3.3H4.4zM4,2.4H4.9V3.3H4zM5,2H5.9V2.9H5zM5.4,2H6.3V2.9H5.4zM5.4,2.4H6.3V3.3H5.4zM5,2.4H5.9V3.3H5zM6,2H6.9V2.9H6zM6.4,2H7.3V2.9H6.4zM6.4,2.4H7.3V3.3H6.4zM6,2.4H6.9V3.3H6zM9.3,4 A2,2 90 0 0 7.3,2 L7.3,3.3 A1,1 90 0 1 8,4 ZM11,2.5A0.5,0.5 0 0 0 12,2.5A0.5,0.5 0 0 0 11,2.5zM17,2.5A0.5,0.5 0 0 0 18,2.5A0.5,0.5 0 0 0 17,2.5zM18,2.5A0.5,0.5 0 0 0 19,2.5A0.5,0.5 0 0 0 18,2.5zM20,2.5A0.5,0.5 0 0 0 21,2.5A0.5,0.5 0 0 0 20,2.5zM26,2 A2,2 0 0 0 24,4 L25.3,4 A1,1 0 0 1 26,3.3 ZM26,2H26.9V2.9H26zM26.4,2H27.3V2.9H26.4zM26.4,2.4H27.3V3.3H26.4zM26,2.4H26.9V3.3H26zM27,2H27.9V2.9H27zM27.4,2H28.3V2.9H27.4zM27.4,2.4H28.3V3.3H27.4zM27,2.4H27.9V3.3H27zM28,2H28.9V2.9H28zM28.4,2H29.3V2.9H28.4zM28.4,2.4H29.3V3.3H28.4zM28,2.4H28.9V3.3H28zM31.3,4 A2,2 90 0 0 29.3,2 L29.3,3.3 A1,1 90 0 1 30,4 ZM10,3.5A0.5,0.5 0 0 0 11,3.5A0.5,0.5 0 0 0 10,3.5zM11,3.5A0.5,0.5 0 0 0 12,3.5A0.5,0.5 0 0 0 11,3.5zM12,3.5A0.5,0.5 0 0 0 13,3.5A0.5,0.5 0 0 0 12,3.5zM13,3.5A0.5,0.5 0 0 0 14,3.5A0.5,0.5 0 0 0 13,3.5zM15,3.5A0.5,0.5 0 0 0 16,3.5A0.5,0.5 0 0 0 15,3.5zM16,3.5A0.5,0.5 0 0 0 17,3.5A0.5,0.5 0 0 0 16,3.5zM18,3.5A0.5,0.5 0 0 0 19,3.5A0.5,0.5 0 0 0 18,3.5zM22,3.5A0.5,0.5 0 0 0 23,3.5A0.5,0.5 0 0 0 22,3.5zM2,4H2.9V4.9H2zM2.4,4H3.3V4.9H2.4zM2.4,4.4H3.3V5.3H2.4zM2,4.4H2.9V5.3H2zM5 5 5 4 A1 1 0 0 0 4 5ZM5,4H5.9V4.9H5zM5.5,4H6.4V4.9H5.5zM5.5,4.5H6.4V5.4H5.5zM5,4.5H5.9V5.4H5zM5,4H5.9V4.9H5zM5.4,4H6.3V4.9H5.4zM5.4,4.4H6.3V5.3H5.4zM5,4.4H5.9V5.3H5zM6.4 5 7.4 5 A1 1 0 0 0 6.4 4ZM8,4H8.9V4.9H8zM8.4,4H9.3V4.9H8.4zM8.4,4.4H9.3V5.3H8.4zM8,4.4H8.9V5.3H8zM10,4.5A0.5,0.5 0 0 0 11,4.5A0.5,0.5 0 0 0 10,4.5zM12,4.5A0.5,0.5 0 0 0 13,4.5A0.5,0.5 0 0 0 12,4.5zM15,4.5A0.5,0.5 0 0 0 16,4.5A0.5,0.5 0 0 0 15,4.5zM17,4.5A0.5,0.5 0 0 0 18,4.5A0.5,0.5 0 0 0 17,4.5zM21,4.5A0.5,0.5 0 0 0 22,4.5A0.5,0.5 0 0 0 21,4.5zM22,4.5A0.5,0.5 0 0 0 23,4.5A0.5,0.5 0 0 0 22,4.5zM24,4H24.9V4.9H24zM24.4,4H25.3V4.9H24.4zM24.4,4.4H25.3V5.3H24.4zM24,4.4H24.9V5.3H24zM27 5 27 4 A1 1 0 0 0 26 5ZM27,4H27.9V4.9H27zM27.5,4H28.4V4.9H27.5zM27.5,4.5H28.4V5.4H27.5zM27,4.5H27.9V5.4H27zM27,4H27.9V4.9H27zM27.4,4H28.3V4.9H27.4zM27.4,4.4H28.3V5.3H27.4zM27,4.4H27.9V5.3H27zM28.4 5 29.4 5 A1 1 0 0 0 28.4 4ZM30,4H30.9V4.9H30zM30.4,4H31.3V4.9H30.4zM30.4,4.4H31.3V5.3H30.4zM30,4.4H30.9V5.3H30zM2,5H2.9V5.9H2zM2.4,5H3.3V5.9H2.4zM2.4,5.4H3.3V6.3H2.4zM2,5.4H2.9V6.3H2zM4,5H4.9V5.9H4zM4.5,5H5.4V5.9H4.5zM4.5,5.5H5.4V6.4H4.5zM4,5.5H4.9V6.4H4zM4,5H4.9V5.9H4zM4.4,5H5.3V5.9H4.4zM4.4,5.4H5.3V6.3H4.4zM4,5.4H4.9V6.3H4zM5,5H5.9V5.9H5zM5.5,5H6.4V5.9H5.5zM5.5,5.5H6.4V6.4H5.5zM5,5.5H5.9V6.4H5zM5,5H5.9V5.9H5zM5.4,5H6.3V5.9H5.4zM5.4,5.4H6.3V6.3H5.4zM5,5.4H5.9V6.3H5zM6,5H6.9V5.9H6zM6.5,5H7.4V5.9H6.5zM6.5,5.5H7.4V6.4H6.5zM6,5.5H6.9V6.4H6zM6,5H6.9V5.9H6zM6.4,5H7.3V5.9H6.4zM6.4,5.4H7.3V6.3H6.4zM6,5.4H6.9V6.3H6zM8,5H8.9V5.9H8zM8.4,5H9.3V5.9H8.4zM8.4,5.4H9.3V6.3H8.4zM8,5.4H8.9V6.3H8zM10,5.5A0.5,0.5 0 0 0 11,5.5A0.5,0.5 0 0 0 10,5.5zM11,5.5A0.5,0.5 0 0 0 12,5.5A0.5,0.5 0 0 0 11,5.5zM13,5.5A0.5,0.5 0 0 0 14,5.5A0.5,0.5 0 0 0 13,5.5zM18,5.5A0.5,0.5 0 0 0 19,5.5A0.5,0.5 0 0 0 18,5.5zM19,5.5A0.5,0.5 0 0 0 20,5.5A0.5,0.5 0 0 0 19,5.5zM20,5.5A0.5,0.5 0 0 0 21,5.5A0.5,0.5 0 0 0 20,5.5zM21,5.5A0.5,0.5 0 0 0 22,5.5A0.5,0.5 0 0 0 21,5.5zM22,5.5A0.5,0.5 0 0 0 23,5.5A0.5,0.5 0 0 0 22,5.5zM24,5H24.9V5.9H24zM24.4,5H25.3V5.9H24.4zM24.4,5.4H25.3V6.3H24.4zM24,5.4H24.9V6.3H24zM26,5H26.9V5.9H26zM26.5,5H27.4V5.9H26.5zM26.5,5.5H27.4V6.4H26.5zM26,5.5H26.9V6.4H26zM26,5H26.9V5.9H26zM26.4,5H27.3V5.9H26.4zM26.4,5.4H27.3V6.3H26.4zM26,5.4H26.9V6.3H26zM27,5H27.9V5.9H27zM27.5,5H28.4V5.9H27.5zM27.5,5.5H28.4V6.4H27.5zM27,5.5H27.9V6.4H27zM27,5H27.9V5.9H27zM27.4,5H28.3V5.9H27.4zM27.4,5.4H28.3V6.3H27.4zM27,5.4H27.9V6.3H27zM28,5H28.9V5.9H28zM28.5,5H29.4V5.9H28.5zM28.5,5.5H29.4V6.4H28.5zM28,5.5H28.9V6.4H28zM28,5H28.9V5.9H28zM28.4,5H29.3V5.9H28.4zM28.4,5.4H29.3V6.3H28.4zM28,5.4H28.9V6.3H28zM30,5H30.9V5.9H30zM30.4,5H31.3V5.9H30.4zM30.4,5.4H31.3V6.3H30.4zM30,5.4H30.9V6.3H30zM2,6H2.9V6.9H2zM2.4,6H3.3V6.9H2.4zM2.4,6.4H3.3V7.3H2.4zM2,6.4H2.9V7.3H2zM5 6.4 5 7.4 A1 1 0 0 1 4 6.4ZM5,6H5.9V6.9H5zM5.5,6H6.4V6.9H5.5zM5.5,6.5H6.4V7.4H5.5zM5,6.5H5.9V7.4H5zM5,6H5.9V6.9H5zM5.4,6H6.3V6.9H5.4zM5.4,6.4H6.3V7.3H5.4zM5,6.4H5.9V7.3H5zM6,6H6.9V6.9H6zM6.5,6H7.4V6.9H6.5zM6.5,6.5H7.4V7.4H6.5zM6,6.5H6.9V7.4H6zM6,6H6.9V6.9H6zM6.4,6H7.3V6.9H6.4zM6.4,6.4H7.3V7.3H6.4zM6,6.4H6.9V7.3H6zM8,6H8.9V6.9H8zM8.4,6H9.3V6.9H8.4zM8.4,6.4H9.3V7.3H8.4zM8,6.4H8.9V7.3H8zM11,6.5A0.5,0.5 0 0 0 12,6.5A0.5,0.5 0 0 0 11,6.5zM13,6.5A0.5,0.5 0 0 0 14,6.5A0.5,0.5 0 0 0 13,6.5zM17,6.5A0.5,0.5 0 0 0 18,6.5A0.5,0.5 0 0 0 17,6.5zM18,6.5A0.5,0.5 0 0 0 19,6.5A0.5,0.5 0 0 0 18,6.5zM19,6.5A0.5,0.5 0 0 0 20,6.5A0.5,0.5 0 0 0 19,6.5zM20,6.5A0.5,0.5 0 0 0 21,6.5A0.5,0.5 0 0 0 20,6.5zM21,6.5A0.5,0.5 0 0 0 22,6.5A0.5,0.5 0 0 0 21,6.5zM22,6.5A0.5,0.5 0 0 0 23,6.5A0.5,0.5 0 0 0 22,6.5zM24,6H24.9V6.9H24zM24.4,6H25.3V6.9H24.4zM24.4,6.4H25.3V7.3H24.4zM24,6.4H24.9V7.3H24zM26,6H26.9V6.9H26zM26.5,6H27.4V6.9H26.5zM26.5,6.5H27.4V7.4H26.5zM26,6.5H26.9V7.4H26zM26,6H26.9V6.9H26zM26.4,6H27.3V6.9H26.4zM26.4,6.4H27.3V7.3H26.4zM26,6.4H26.9V7.3H26zM27,6H27.9V6.9H27zM27.5,6H28.4V6.9H27.5zM27.5,6.5H28.4V7.4H27.5zM27,6.5H27.9V7.4H27zM27,6H27.9V6.9H27zM27.4,6H28.3V6.9H27.4zM27.4,6.4H28.3V7.3H27.4zM27,6.4H27.9V7.3H27zM28.4 6.4 29.4 6.4 A1 1 0 0 1 28.4 7.4ZM30,6H30.9V6.9H30zM30.4,6H31.3V6.9H30.4zM30.4,6.4H31.3V7.3H30.4zM30,6.4H30.9V7.3H30zM11,7.5A0.5,0.5 0 0 0 12,7.5A0.5,0.5 0 0 0 11,7.5zM12,7.5A0.5,0.5 0 0 0 13,7.5A0.5,0.5 0 0 0 12,7.5zM17,7.5A0.5,0.5 0 0 0 18,7.5A0.5,0.5 0 0 0 17,7.5zM19,7.5A0.5,0.5 0 0 0 20,7.5A0.5,0.5 0 0 0 19,7.5zM22,7.5A0.5,0.5 0 0 0 23,7.5A0.5,0.5 0 0 0 22,7.5zM2,7.3 A2,2 270 0 0 4,9.3 L4,8 A1,1 270 0 1 3.3,7.3 ZM4,8H4.9V8.9H4zM4.4,8H5.3V8.9H4.4zM4.4,8.4H5.3V9.3H4.4zM4,8.4H4.9V9.3H4zM5,8H5.9V8.9H5zM5.4,8H6.3V8.9H5.4zM5.4,8.4H6.3V9.3H5.4zM5,8.4H5.9V9.3H5zM6,8H6.9V8.9H6zM6.4,8H7.3V8.9H6.4zM6.4,8.4H7.3V9.3H6.4zM6,8.4H6.9V9.3H6zM8,8H8.9V8.9H8zM8.4,8H9.3V8.9H8.4zM8.4,8.4H9.3V9.3H8.4zM8,8.4H8.9V9.3H8zM7,8H7.9V8.9H7zM7.4,8H8.3V8.9H7.4zM7.4,8.4H8.3V9.3H7.4zM7,8.4H7.9V9.3H7zM8,7H8.9V7.9H8zM8.4,7H9.3V7.9H8.4zM8.4,7.4H9.3V8.3H8.4zM8,7.4H8.9V8.3H8zM10,8.5A0.5,0.5 0 0 0 11,8.5A0.5,0.5 0 0 0 10,8.5zM12,8.5A0.5,0.5 0 0 0 13,8.5A0.5,0.5 0 0 0 12,8.5zM14,8.5A0.5,0.5 0 0 0 15,8.5A0.5,0.5 0 0 0 14,8.5zM16,8.5A0.5,0.5 0 0 0 17,8.5A0.5,0.5 0 0 0 16,8.5zM18,8.5A0.5,0.5 0 0 0 19,8.5A0.5,0.5 0 0 0 18,8.5zM20,8.5A0.5,0.5 0 0 0 21,8.5A0.5,0.5 0 0 0 20,8.5zM22,8.5A0.5,0.5 0 0 0 23,8.5A0.5,0.5 0 0 0 22,8.5zM24,8H24.9V8.9H24zM24.4,8H25.3V8.9H24.4zM24.4,8.4H25.3V9.3H24.4zM24,8.4H24.9V9.3H24zM25,8H25.9V8.9H25zM25.4,8H26.3V8.9H25.4zM25.4,8.4H26.3V9.3H25.4zM25,8.4H25.9V9.3H25zM24,7H24.9V7.9H24zM24.4,7H25.3V7.9H24.4zM24.4,7.4H25.3V8.3H24.4zM24,7.4H24.9V8.3H24zM26,8H26.9V8.9H26zM26.4,8H27.3V8.9H26.4zM26.4,8.4H27.3V9.3H26.4zM26,8.4H26.9V9.3H26zM27,8H27.9V8.9H27zM27.4,8H28.3V8.9H27.4zM27.4,8.4H28.3V9.3H27.4zM27,8.4H27.9V9.3H27zM28,8H28.9V8.9H28zM28.4,8H29.3V8.9H28.4zM28.4,8.4H29.3V9.3H28.4zM28,8.4H28.9V9.3H28zM29.3,9.3 A2,2 180 0 0 31.3,7.3 L30,7.3 A1,1 180 0 1 29.3,8 ZM10,9.5A0.5,0.5 0 0 0 11,9.5A0.5,0.5 0 0 0 10,9.5zM12,9.5A0.5,0.5 0 0 0 13,9.5A0.5,0.5 0 0 0 12,9.5zM16,9.5A0.5,0.5 0 0 0 17,9.5A0.5,0.5 0 0 0 16,9.5zM17,9.5A0.5,0.5 0 0 0 18,9.5A0.5,0.5 0 0 0 17,9.5zM18,9.5A0.5,0.5 0 0 0 19,9.5A0.5,0.5 0 0 0 18,9.5zM21,9.5A0.5,0.5 0 0 0 22,9.5A0.5,0.5 0 0 0 21,9.5zM2,10.5A0.5,0.5 0 0 0 3,10.5A0.5,0.5 0 0 0 2,10.5zM8,10.5A0.5,0.5 0 0 0 9,10.5A0.5,0.5 0 0 0 8,10.5zM10,10.5A0.5,0.5 0 0 0 11,10.5A0.5,0.5 0 0 0 10,10.5zM12,10.5A0.5,0.5 0 0 0 13,10.5A0.5,0.5 0 0 0 12,10.5zM18,10.5A0.5,0.5 0 0 0 19,10.5A0.5,0.5 0 0 0 18,10.5zM23,10.5A0.5,0.5 0 0 0 24,10.5A0.5,0.5 0 0 0 23,10.5zM24,10.5A0.5,0.5 0 0 0 25,10.5A0.5,0.5 0 0 0 24,10.5zM27,10.5A0.5,0.5 0 0 0 28,10.5A0.5,0.5 0 0 0 27,10.5zM28,10.5A0.5,0.5 0 0 0 29,10.5A0.5,0.5 0 0 0 28,10.5zM29,10.5A0.5,0.5 0 0 0 30,10.5A0.5,0.5 0 0 0 29,10.5zM2,11.5A0.5,0.5 0 0 0 3,11.5A0.5,0.5 0 0 0 2,11.5zM3,11.5A0.5,0.5 0 0 0 4,11.5A0.5,0.5 0 0 0 3,11.5zM4,11.5A0.5,0.5 0 0 0 5,11.5A0.5,0.5 0 0 0 4,11.5zM5,11.5A0.5,0.5 0 0 0 6,11.5A0.5,0.5 0 0 0 5,11.5zM11,11.5A0.5,0.5 0 0 0 12,11.5A0.5,0.5 0 0 0 11,11.5zM14,11.5A0.5,0.5 0 0 0 15,11.5A0.5,0.5 0 0 0 14,11.5zM15,11.5A0.5,0.5 0 0 0 16,11.5A0.5,0.5 0 0 0 15,11.5zM18,11.5A0.5,0.5 0 0 0 19,11.5A0.5,0.5 0 0 0 18,11.5zM21,11.5A0.5,0.5 0 0 0 22,11.5A0.5,0.5 0 0 0 21,11.5zM26,11.5A0.5,0.5 0 0 0 27,11.5A0.5,0.5 0 0 0 26,11.5zM28,11.5A0.5,0.5 0 0 0 29,11.5A0.5,0.5 0 0 0 28,11.5zM29,11.5A0.5,0.5 0 0 0 30,11.5A0.5,0.5 0 0 0 29,11.5zM3,12.5A0.5,0.5 0 0 0 4,12.5A0.5,0.5 0 0 0 3,12.5zM4,12.5A0.5,0.5 0 0 0 5,12.5A0.5,0.5 0 0 0 4,12.5zM6,12.5A0.5,0.5 0 0 0 7,12.5A0.5,0.5 0 0 0 6,12.5zM8,12.5A0.5,0.5 0 0 0 9,12.5A0.5,0.5 0 0 0 8,12.5zM9,12.5A0.5,0.5 0 0 0 10,12.5A0.5,0.5 0 0 0 9,12.5zM11,12.5A0.5,0.5 0 0 0 12,12.5A0.5,0.5 0 0 0 11,12.5zM13,12.5A0.5,0.5 0 0 0 14,12.5A0.5,0.5 0 0 0 13,12.5zM14,12.5A0.5,0.5 0 0 0 15,12.5A0.5,0.5 0 0 0 14,12.5zM15,12.5A0.5,0.5 0 0 0 16,12.5A0.5,0.5 0 0 0 15,12.5zM16,12.5A0.5,0.5 0 0 0 17,12.5A0.5,0.5 0 0 0 16,12.5zM17,12.5A0.5,0.5 0 0 0 18,12.5A0.5,0.5 0 0 0 17,12.5zM18,12.5A0.5,0.5 0 0 0 19,12.5A0.5,0.5 0 0 0 18,12.5zM19,12.5A0.5,0.5 0 0 0 20,12.5A0.5,0.5 0 0 0 19,12.5zM24,12.5A0.5,0.5 0 0 0 25,12.5A0.5,0.5 0 0 0 24,12.5zM25,12.5A0.5,0.5 0 0 0 26,12.5A0.5,0.5 0 0 0 25,12.5zM3,13.5A0.5,0.5 0 0 0 4,13.5A0.5,0.5 0 0 0 3,13.5zM6,13.5A0.5,0.5 0 0 0 7,13.5A0.5,0.5 0 0 0 6,13.5z  M21,13.5A0.5,0.5 0 0 0 22,13.5A0.5,0.5 0 0 0 21,13.5zM22,13.5A0.5,0.5 0 0 0 23,13.5A0.5,0.5 0 0 0 22,13.5zM24,13.5A0.5,0.5 0 0 0 25,13.5A0.5,0.5 0 0 0 24,13.5zM27,13.5A0.5,0.5 0 0 0 28,13.5A0.5,0.5 0 0 0 27,13.5zM3,14.5A0.5,0.5 0 0 0 4,14.5A0.5,0.5 0 0 0 3,14.5zM4,14.5A0.5,0.5 0 0 0 5,14.5A0.5,0.5 0 0 0 4,14.5zM7,14.5A0.5,0.5 0 0 0 8,14.5A0.5,0.5 0 0 0 7,14.5zM8,14.5A0.5,0.5 0 0 0 9,14.5A0.5,0.5 0 0 0 8,14.5zM11,14.5A0.5,0.5 0 0 0 12,14.5A0.5,0.5 0 0 0 11,14.5z   M22,14.5A0.5,0.5 0 0 0 23,14.5A0.5,0.5 0 0 0 22,14.5zM24,14.5A0.5,0.5 0 0 0 25,14.5A0.5,0.5 0 0 0 24,14.5zM25,14.5A0.5,0.5 0 0 0 26,14.5A0.5,0.5 0 0 0 25,14.5zM30,14.5A0.5,0.5 0 0 0 31,14.5A0.5,0.5 0 0 0 30,14.5zM5,15.5A0.5,0.5 0 0 0 6,15.5A0.5,0.5 0 0 0 5,15.5zM7,15.5A0.5,0.5 0 0 0 8,15.5A0.5,0.5 0 0 0 7,15.5zM9,15.5A0.5,0.5 0 0 0 10,15.5A0.5,0.5 0 0 0 9,15.5zM10,15.5A0.5,0.5 0 0 0 11,15.5A0.5,0.5 0 0 0 10,15.5zM11,15.5A0.5,0.5 0 0 0 12,15.5A0.5,0.5 0 0 0 11,15.5zM12,15.5A0.5,0.5 0 0 0 13,15.5A0.5,0.5 0 0 0 12,15.5z   M21,15.5A0.5,0.5 0 0 0 22,15.5A0.5,0.5 0 0 0 21,15.5zM24,15.5A0.5,0.5 0 0 0 25,15.5A0.5,0.5 0 0 0 24,15.5zM25,15.5A0.5,0.5 0 0 0 26,15.5A0.5,0.5 0 0 0 25,15.5zM26,15.5A0.5,0.5 0 0 0 27,15.5A0.5,0.5 0 0 0 26,15.5zM29,15.5A0.5,0.5 0 0 0 30,15.5A0.5,0.5 0 0 0 29,15.5zM30,15.5A0.5,0.5 0 0 0 31,15.5A0.5,0.5 0 0 0 30,15.5zM3,16.5A0.5,0.5 0 0 0 4,16.5A0.5,0.5 0 0 0 3,16.5zM4,16.5A0.5,0.5 0 0 0 5,16.5A0.5,0.5 0 0 0 4,16.5zM5,16.5A0.5,0.5 0 0 0 6,16.5A0.5,0.5 0 0 0 5,16.5zM7,16.5A0.5,0.5 0 0 0 8,16.5A0.5,0.5 0 0 0 7,16.5zM8,16.5A0.5,0.5 0 0 0 9,16.5A0.5,0.5 0 0 0 8,16.5zM11,16.5A0.5,0.5 0 0 0 12,16.5A0.5,0.5 0 0 0 11,16.5zM12,16.5A0.5,0.5 0 0 0 13,16.5A0.5,0.5 0 0 0 12,16.5z  M22,16.5A0.5,0.5 0 0 0 23,16.5A0.5,0.5 0 0 0 22,16.5zM23,16.5A0.5,0.5 0 0 0 24,16.5A0.5,0.5 0 0 0 23,16.5zM27,16.5A0.5,0.5 0 0 0 28,16.5A0.5,0.5 0 0 0 27,16.5zM28,16.5A0.5,0.5 0 0 0 29,16.5A0.5,0.5 0 0 0 28,16.5zM3,17.5A0.5,0.5 0 0 0 4,17.5A0.5,0.5 0 0 0 3,17.5zM5,17.5A0.5,0.5 0 0 0 6,17.5A0.5,0.5 0 0 0 5,17.5zM9,17.5A0.5,0.5 0 0 0 10,17.5A0.5,0.5 0 0 0 9,17.5zM12,17.5A0.5,0.5 0 0 0 13,17.5A0.5,0.5 0 0 0 12,17.5z M22,17.5A0.5,0.5 0 0 0 23,17.5A0.5,0.5 0 0 0 22,17.5zM23,17.5A0.5,0.5 0 0 0 24,17.5A0.5,0.5 0 0 0 23,17.5zM24,17.5A0.5,0.5 0 0 0 25,17.5A0.5,0.5 0 0 0 24,17.5zM25,17.5A0.5,0.5 0 0 0 26,17.5A0.5,0.5 0 0 0 25,17.5zM28,17.5A0.5,0.5 0 0 0 29,17.5A0.5,0.5 0 0 0 28,17.5zM30,17.5A0.5,0.5 0 0 0 31,17.5A0.5,0.5 0 0 0 30,17.5zM3,18.5A0.5,0.5 0 0 0 4,18.5A0.5,0.5 0 0 0 3,18.5zM7,18.5A0.5,0.5 0 0 0 8,18.5A0.5,0.5 0 0 0 7,18.5zM8,18.5A0.5,0.5 0 0 0 9,18.5A0.5,0.5 0 0 0 8,18.5zM10,18.5A0.5,0.5 0 0 0 11,18.5A0.5,0.5 0 0 0 10,18.5zM11,18.5A0.5,0.5 0 0 0 12,18.5A0.5,0.5 0 0 0 11,18.5z   M27,18.5A0.5,0.5 0 0 0 28,18.5A0.5,0.5 0 0 0 27,18.5zM28,18.5A0.5,0.5 0 0 0 29,18.5A0.5,0.5 0 0 0 28,18.5zM2,19.5A0.5,0.5 0 0 0 3,19.5A0.5,0.5 0 0 0 2,19.5zM5,19.5A0.5,0.5 0 0 0 6,19.5A0.5,0.5 0 0 0 5,19.5zM6,19.5A0.5,0.5 0 0 0 7,19.5A0.5,0.5 0 0 0 6,19.5zM10,19.5A0.5,0.5 0 0 0 11,19.5A0.5,0.5 0 0 0 10,19.5zM12,19.5A0.5,0.5 0 0 0 13,19.5A0.5,0.5 0 0 0 12,19.5z     M21,19.5A0.5,0.5 0 0 0 22,19.5A0.5,0.5 0 0 0 21,19.5zM22,19.5A0.5,0.5 0 0 0 23,19.5A0.5,0.5 0 0 0 22,19.5zM23,19.5A0.5,0.5 0 0 0 24,19.5A0.5,0.5 0 0 0 23,19.5zM24,19.5A0.5,0.5 0 0 0 25,19.5A0.5,0.5 0 0 0 24,19.5zM25,19.5A0.5,0.5 0 0 0 26,19.5A0.5,0.5 0 0 0 25,19.5zM26,19.5A0.5,0.5 0 0 0 27,19.5A0.5,0.5 0 0 0 26,19.5zM28,19.5A0.5,0.5 0 0 0 29,19.5A0.5,0.5 0 0 0 28,19.5zM29,19.5A0.5,0.5 0 0 0 30,19.5A0.5,0.5 0 0 0 29,19.5zM30,19.5A0.5,0.5 0 0 0 31,19.5A0.5,0.5 0 0 0 30,19.5zM2,20.5A0.5,0.5 0 0 0 3,20.5A0.5,0.5 0 0 0 2,20.5zM3,20.5A0.5,0.5 0 0 0 4,20.5A0.5,0.5 0 0 0 3,20.5zM6,20.5A0.5,0.5 0 0 0 7,20.5A0.5,0.5 0 0 0 6,20.5zM8,20.5A0.5,0.5 0 0 0 9,20.5A0.5,0.5 0 0 0 8,20.5zM10,20.5A0.5,0.5 0 0 0 11,20.5A0.5,0.5 0 0 0 10,20.5z    M21,20.5A0.5,0.5 0 0 0 22,20.5A0.5,0.5 0 0 0 21,20.5zM22,20.5A0.5,0.5 0 0 0 23,20.5A0.5,0.5 0 0 0 22,20.5zM24,20.5A0.5,0.5 0 0 0 25,20.5A0.5,0.5 0 0 0 24,20.5zM26,20.5A0.5,0.5 0 0 0 27,20.5A0.5,0.5 0 0 0 26,20.5zM27,20.5A0.5,0.5 0 0 0 28,20.5A0.5,0.5 0 0 0 27,20.5zM30,20.5A0.5,0.5 0 0 0 31,20.5A0.5,0.5 0 0 0 30,20.5zM2,21.5A0.5,0.5 0 0 0 3,21.5A0.5,0.5 0 0 0 2,21.5zM4,21.5A0.5,0.5 0 0 0 5,21.5A0.5,0.5 0 0 0 4,21.5zM5,21.5A0.5,0.5 0 0 0 6,21.5A0.5,0.5 0 0 0 5,21.5zM7,21.5A0.5,0.5 0 0 0 8,21.5A0.5,0.5 0 0 0 7,21.5zM10,21.5A0.5,0.5 0 0 0 11,21.5A0.5,0.5 0 0 0 10,21.5zM11,21.5A0.5,0.5 0 0 0 12,21.5A0.5,0.5 0 0 0 11,21.5zM15,21.5A0.5,0.5 0 0 0 16,21.5A0.5,0.5 0 0 0 15,21.5zM21,21.5A0.5,0.5 0 0 0 22,21.5A0.5,0.5 0 0 0 21,21.5zM24,21.5A0.5,0.5 0 0 0 25,21.5A0.5,0.5 0 0 0 24,21.5zM2,22.5A0.5,0.5 0 0 0 3,22.5A0.5,0.5 0 0 0 2,22.5zM4,22.5A0.5,0.5 0 0 0 5,22.5A0.5,0.5 0 0 0 4,22.5zM6,22.5A0.5,0.5 0 0 0 7,22.5A0.5,0.5 0 0 0 6,22.5zM7,22.5A0.5,0.5 0 0 0 8,22.5A0.5,0.5 0 0 0 7,22.5zM8,22.5A0.5,0.5 0 0 0 9,22.5A0.5,0.5 0 0 0 8,22.5zM11,22.5A0.5,0.5 0 0 0 12,22.5A0.5,0.5 0 0 0 11,22.5zM12,22.5A0.5,0.5 0 0 0 13,22.5A0.5,0.5 0 0 0 12,22.5zM14,22.5A0.5,0.5 0 0 0 15,22.5A0.5,0.5 0 0 0 14,22.5zM16,22.5A0.5,0.5 0 0 0 17,22.5A0.5,0.5 0 0 0 16,22.5zM17,22.5A0.5,0.5 0 0 0 18,22.5A0.5,0.5 0 0 0 17,22.5zM21,22.5A0.5,0.5 0 0 0 22,22.5A0.5,0.5 0 0 0 21,22.5zM22,22.5A0.5,0.5 0 0 0 23,22.5A0.5,0.5 0 0 0 22,22.5zM23,22.5A0.5,0.5 0 0 0 24,22.5A0.5,0.5 0 0 0 23,22.5zM24,22.5A0.5,0.5 0 0 0 25,22.5A0.5,0.5 0 0 0 24,22.5zM25,22.5A0.5,0.5 0 0 0 26,22.5A0.5,0.5 0 0 0 25,22.5zM26,22.5A0.5,0.5 0 0 0 27,22.5A0.5,0.5 0 0 0 26,22.5zM28,22.5A0.5,0.5 0 0 0 29,22.5A0.5,0.5 0 0 0 28,22.5zM29,22.5A0.5,0.5 0 0 0 30,22.5A0.5,0.5 0 0 0 29,22.5zM30,22.5A0.5,0.5 0 0 0 31,22.5A0.5,0.5 0 0 0 30,22.5zM10,23.5A0.5,0.5 0 0 0 11,23.5A0.5,0.5 0 0 0 10,23.5zM11,23.5A0.5,0.5 0 0 0 12,23.5A0.5,0.5 0 0 0 11,23.5zM12,23.5A0.5,0.5 0 0 0 13,23.5A0.5,0.5 0 0 0 12,23.5zM13,23.5A0.5,0.5 0 0 0 14,23.5A0.5,0.5 0 0 0 13,23.5zM14,23.5A0.5,0.5 0 0 0 15,23.5A0.5,0.5 0 0 0 14,23.5zM16,23.5A0.5,0.5 0 0 0 17,23.5A0.5,0.5 0 0 0 16,23.5zM19,23.5A0.5,0.5 0 0 0 20,23.5A0.5,0.5 0 0 0 19,23.5zM21,23.5A0.5,0.5 0 0 0 22,23.5A0.5,0.5 0 0 0 21,23.5zM22,23.5A0.5,0.5 0 0 0 23,23.5A0.5,0.5 0 0 0 22,23.5zM26,23.5A0.5,0.5 0 0 0 27,23.5A0.5,0.5 0 0 0 26,23.5zM27,23.5A0.5,0.5 0 0 0 28,23.5A0.5,0.5 0 0 0 27,23.5zM4,24 A2,2 0 0 0 2,26 L3.3,26 A1,1 0 0 1 4,25.3 ZM4,24H4.9V24.9H4zM4.4,24H5.3V24.9H4.4zM4.4,24.4H5.3V25.3H4.4zM4,24.4H4.9V25.3H4zM5,24H5.9V24.9H5zM5.4,24H6.3V24.9H5.4zM5.4,24.4H6.3V25.3H5.4zM5,24.4H5.9V25.3H5zM6,24H6.9V24.9H6zM6.4,24H7.3V24.9H6.4zM6.4,24.4H7.3V25.3H6.4zM6,24.4H6.9V25.3H6zM8,24H8.9V24.9H8zM8.4,24H9.3V24.9H8.4zM8.4,24.4H9.3V25.3H8.4zM8,24.4H8.9V25.3H8zM7,24H7.9V24.9H7zM7.4,24H8.3V24.9H7.4zM7.4,24.4H8.3V25.3H7.4zM7,24.4H7.9V25.3H7zM8,25H8.9V25.9H8zM8.4,25H9.3V25.9H8.4zM8.4,25.4H9.3V26.3H8.4zM8,25.4H8.9V26.3H8zM11,24.5A0.5,0.5 0 0 0 12,24.5A0.5,0.5 0 0 0 11,24.5zM12,24.5A0.5,0.5 0 0 0 13,24.5A0.5,0.5 0 0 0 12,24.5zM13,24.5A0.5,0.5 0 0 0 14,24.5A0.5,0.5 0 0 0 13,24.5zM19,24.5A0.5,0.5 0 0 0 20,24.5A0.5,0.5 0 0 0 19,24.5zM20,24.5A0.5,0.5 0 0 0 21,24.5A0.5,0.5 0 0 0 20,24.5zM21,24.5A0.5,0.5 0 0 0 22,24.5A0.5,0.5 0 0 0 21,24.5zM22,24.5A0.5,0.5 0 0 0 23,24.5A0.5,0.5 0 0 0 22,24.5zM24,24.5A0.5,0.5 0 0 0 25,24.5A0.5,0.5 0 0 0 24,24.5zM26,24.5A0.5,0.5 0 0 0 27,24.5A0.5,0.5 0 0 0 26,24.5zM27,24.5A0.5,0.5 0 0 0 28,24.5A0.5,0.5 0 0 0 27,24.5zM28,24.5A0.5,0.5 0 0 0 29,24.5A0.5,0.5 0 0 0 28,24.5zM11,25.5A0.5,0.5 0 0 0 12,25.5A0.5,0.5 0 0 0 11,25.5zM13,25.5A0.5,0.5 0 0 0 14,25.5A0.5,0.5 0 0 0 13,25.5zM16,25.5A0.5,0.5 0 0 0 17,25.5A0.5,0.5 0 0 0 16,25.5zM17,25.5A0.5,0.5 0 0 0 18,25.5A0.5,0.5 0 0 0 17,25.5zM18,25.5A0.5,0.5 0 0 0 19,25.5A0.5,0.5 0 0 0 18,25.5zM20,25.5A0.5,0.5 0 0 0 21,25.5A0.5,0.5 0 0 0 20,25.5zM21,25.5A0.5,0.5 0 0 0 22,25.5A0.5,0.5 0 0 0 21,25.5zM22,25.5A0.5,0.5 0 0 0 23,25.5A0.5,0.5 0 0 0 22,25.5zM26,25.5A0.5,0.5 0 0 0 27,25.5A0.5,0.5 0 0 0 26,25.5zM2,26H2.9V26.9H2zM2.4,26H3.3V26.9H2.4zM2.4,26.4H3.3V27.3H2.4zM2,26.4H2.9V27.3H2zM5 27 5 26 A1 1 0 0 0 4 27ZM5,26H5.9V26.9H5zM5.5,26H6.4V26.9H5.5zM5.5,26.5H6.4V27.4H5.5zM5,26.5H5.9V27.4H5zM5,26H5.9V26.9H5zM5.4,26H6.3V26.9H5.4zM5.4,26.4H6.3V27.3H5.4zM5,26.4H5.9V27.3H5zM6,26H6.9V26.9H6zM6.5,26H7.4V26.9H6.5zM6.5,26.5H7.4V27.4H6.5zM6,26.5H6.9V27.4H6zM6,26H6.9V26.9H6zM6.4,26H7.3V26.9H6.4zM6.4,26.4H7.3V27.3H6.4zM6,26.4H6.9V27.3H6zM8,26H8.9V26.9H8zM8.4,26H9.3V26.9H8.4zM8.4,26.4H9.3V27.3H8.4zM8,26.4H8.9V27.3H8zM11,26.5A0.5,0.5 0 0 0 12,26.5A0.5,0.5 0 0 0 11,26.5zM12,26.5A0.5,0.5 0 0 0 13,26.5A0.5,0.5 0 0 0 12,26.5zM13,26.5A0.5,0.5 0 0 0 14,26.5A0.5,0.5 0 0 0 13,26.5zM14,26.5A0.5,0.5 0 0 0 15,26.5A0.5,0.5 0 0 0 14,26.5zM15,26.5A0.5,0.5 0 0 0 16,26.5A0.5,0.5 0 0 0 15,26.5zM16,26.5A0.5,0.5 0 0 0 17,26.5A0.5,0.5 0 0 0 16,26.5zM19,26.5A0.5,0.5 0 0 0 20,26.5A0.5,0.5 0 0 0 19,26.5zM20,26.5A0.5,0.5 0 0 0 21,26.5A0.5,0.5 0 0 0 20,26.5zM21,26.5A0.5,0.5 0 0 0 22,26.5A0.5,0.5 0 0 0 21,26.5zM22,26.5A0.5,0.5 0 0 0 23,26.5A0.5,0.5 0 0 0 22,26.5zM23,26.5A0.5,0.5 0 0 0 24,26.5A0.5,0.5 0 0 0 23,26.5zM24,26.5A0.5,0.5 0 0 0 25,26.5A0.5,0.5 0 0 0 24,26.5zM25,26.5A0.5,0.5 0 0 0 26,26.5A0.5,0.5 0 0 0 25,26.5zM26,26.5A0.5,0.5 0 0 0 27,26.5A0.5,0.5 0 0 0 26,26.5zM27,26.5A0.5,0.5 0 0 0 28,26.5A0.5,0.5 0 0 0 27,26.5zM2,27H2.9V27.9H2zM2.4,27H3.3V27.9H2.4zM2.4,27.4H3.3V28.3H2.4zM2,27.4H2.9V28.3H2zM4,27H4.9V27.9H4zM4.5,27H5.4V27.9H4.5zM4.5,27.5H5.4V28.4H4.5zM4,27.5H4.9V28.4H4zM4,27H4.9V27.9H4zM4.4,27H5.3V27.9H4.4zM4.4,27.4H5.3V28.3H4.4zM4,27.4H4.9V28.3H4zM5,27H5.9V27.9H5zM5.5,27H6.4V27.9H5.5zM5.5,27.5H6.4V28.4H5.5zM5,27.5H5.9V28.4H5zM5,27H5.9V27.9H5zM5.4,27H6.3V27.9H5.4zM5.4,27.4H6.3V28.3H5.4zM5,27.4H5.9V28.3H5zM6,27H6.9V27.9H6zM6.5,27H7.4V27.9H6.5zM6.5,27.5H7.4V28.4H6.5zM6,27.5H6.9V28.4H6zM6,27H6.9V27.9H6zM6.4,27H7.3V27.9H6.4zM6.4,27.4H7.3V28.3H6.4zM6,27.4H6.9V28.3H6zM8,27H8.9V27.9H8zM8.4,27H9.3V27.9H8.4zM8.4,27.4H9.3V28.3H8.4zM8,27.4H8.9V28.3H8zM11,27.5A0.5,0.5 0 0 0 12,27.5A0.5,0.5 0 0 0 11,27.5zM14,27.5A0.5,0.5 0 0 0 15,27.5A0.5,0.5 0 0 0 14,27.5zM16,27.5A0.5,0.5 0 0 0 17,27.5A0.5,0.5 0 0 0 16,27.5zM19,27.5A0.5,0.5 0 0 0 20,27.5A0.5,0.5 0 0 0 19,27.5zM20,27.5A0.5,0.5 0 0 0 21,27.5A0.5,0.5 0 0 0 20,27.5zM22,27.5A0.5,0.5 0 0 0 23,27.5A0.5,0.5 0 0 0 22,27.5zM23,27.5A0.5,0.5 0 0 0 24,27.5A0.5,0.5 0 0 0 23,27.5zM27,27.5A0.5,0.5 0 0 0 28,27.5A0.5,0.5 0 0 0 27,27.5zM28,27.5A0.5,0.5 0 0 0 29,27.5A0.5,0.5 0 0 0 28,27.5zM29,27.5A0.5,0.5 0 0 0 30,27.5A0.5,0.5 0 0 0 29,27.5zM2,28H2.9V28.9H2zM2.4,28H3.3V28.9H2.4zM2.4,28.4H3.3V29.3H2.4zM2,28.4H2.9V29.3H2zM5 28.4 5 29.4 A1 1 0 0 1 4 28.4ZM5,28H5.9V28.9H5zM5.5,28H6.4V28.9H5.5zM5.5,28.5H6.4V29.4H5.5zM5,28.5H5.9V29.4H5zM5,28H5.9V28.9H5zM5.4,28H6.3V28.9H5.4zM5.4,28.4H6.3V29.3H5.4zM5,28.4H5.9V29.3H5zM6.4 28.4 7.4 28.4 A1 1 0 0 1 6.4 29.4ZM8,28H8.9V28.9H8zM8.4,28H9.3V28.9H8.4zM8.4,28.4H9.3V29.3H8.4zM8,28.4H8.9V29.3H8zM12,28.5A0.5,0.5 0 0 0 13,28.5A0.5,0.5 0 0 0 12,28.5zM13,28.5A0.5,0.5 0 0 0 14,28.5A0.5,0.5 0 0 0 13,28.5zM14,28.5A0.5,0.5 0 0 0 15,28.5A0.5,0.5 0 0 0 14,28.5zM17,28.5A0.5,0.5 0 0 0 18,28.5A0.5,0.5 0 0 0 17,28.5zM18,28.5A0.5,0.5 0 0 0 19,28.5A0.5,0.5 0 0 0 18,28.5zM19,28.5A0.5,0.5 0 0 0 20,28.5A0.5,0.5 0 0 0 19,28.5zM21,28.5A0.5,0.5 0 0 0 22,28.5A0.5,0.5 0 0 0 21,28.5zM22,28.5A0.5,0.5 0 0 0 23,28.5A0.5,0.5 0 0 0 22,28.5zM23,28.5A0.5,0.5 0 0 0 24,28.5A0.5,0.5 0 0 0 23,28.5zM24,28.5A0.5,0.5 0 0 0 25,28.5A0.5,0.5 0 0 0 24,28.5zM25,28.5A0.5,0.5 0 0 0 26,28.5A0.5,0.5 0 0 0 25,28.5zM26,28.5A0.5,0.5 0 0 0 27,28.5A0.5,0.5 0 0 0 26,28.5zM27,28.5A0.5,0.5 0 0 0 28,28.5A0.5,0.5 0 0 0 27,28.5zM28,28.5A0.5,0.5 0 0 0 29,28.5A0.5,0.5 0 0 0 28,28.5zM29,28.5A0.5,0.5 0 0 0 30,28.5A0.5,0.5 0 0 0 29,28.5zM12,29.5A0.5,0.5 0 0 0 13,29.5A0.5,0.5 0 0 0 12,29.5zM13,29.5A0.5,0.5 0 0 0 14,29.5A0.5,0.5 0 0 0 13,29.5zM14,29.5A0.5,0.5 0 0 0 15,29.5A0.5,0.5 0 0 0 14,29.5zM15,29.5A0.5,0.5 0 0 0 16,29.5A0.5,0.5 0 0 0 15,29.5zM18,29.5A0.5,0.5 0 0 0 19,29.5A0.5,0.5 0 0 0 18,29.5zM19,29.5A0.5,0.5 0 0 0 20,29.5A0.5,0.5 0 0 0 19,29.5zM20,29.5A0.5,0.5 0 0 0 21,29.5A0.5,0.5 0 0 0 20,29.5zM23,29.5A0.5,0.5 0 0 0 24,29.5A0.5,0.5 0 0 0 23,29.5zM24,29.5A0.5,0.5 0 0 0 25,29.5A0.5,0.5 0 0 0 24,29.5zM26,29.5A0.5,0.5 0 0 0 27,29.5A0.5,0.5 0 0 0 26,29.5zM27,29.5A0.5,0.5 0 0 0 28,29.5A0.5,0.5 0 0 0 27,29.5zM28,29.5A0.5,0.5 0 0 0 29,29.5A0.5,0.5 0 0 0 28,29.5zM30,29.5A0.5,0.5 0 0 0 31,29.5A0.5,0.5 0 0 0 30,29.5zM2,29.3 A2,2 270 0 0 4,31.3 L4,30 A1,1 270 0 1 3.3,29.3 ZM4,30H4.9V30.9H4zM4.4,30H5.3V30.9H4.4zM4.4,30.4H5.3V31.3H4.4zM4,30.4H4.9V31.3H4zM5,30H5.9V30.9H5zM5.4,30H6.3V30.9H5.4zM5.4,30.4H6.3V31.3H5.4zM5,30.4H5.9V31.3H5zM6,30H6.9V30.9H6zM6.4,30H7.3V30.9H6.4zM6.4,30.4H7.3V31.3H6.4zM6,30.4H6.9V31.3H6zM7.3,31.3 A2,2 180 0 0 9.3,29.3 L8,29.3 A1,1 180 0 1 7.3,30 ZM10,30.5A0.5,0.5 0 0 0 11,30.5A0.5,0.5 0 0 0 10,30.5zM13,30.5A0.5,0.5 0 0 0 14,30.5A0.5,0.5 0 0 0 13,30.5zM14,30.5A0.5,0.5 0 0 0 15,30.5A0.5,0.5 0 0 0 14,30.5zM16,30.5A0.5,0.5 0 0 0 17,30.5A0.5,0.5 0 0 0 16,30.5zM17,30.5A0.5,0.5 0 0 0 18,30.5A0.5,0.5 0 0 0 17,30.5zM21,30.5A0.5,0.5 0 0 0 22,30.5A0.5,0.5 0 0 0 21,30.5zM25,30.5A0.5,0.5 0 0 0 26,30.5A0.5,0.5 0 0 0 25,30.5zM28,30.5A0.5,0.5 0 0 0 29,30.5A0.5,0.5 0 0 0 28,30.5z" id="qr-path" fill="#000000" fill-opacity="1" fill-rule="nonzero" stroke="none"/>
</g>
    <g transform="translate(13, 13) scale(1 1) translate(0, 0) scale(0.0222 0.0222) "><style type="text/css">
	.st0{fill:#FFFFFF;}
</style>
<rect class="st0" width="360" height="360"/>
<g id="symbol">
	<path id="Path" d="M182.7,151.5c-1.7,2.2-3.6,4.4-5.2,6.7c-5.3,6.6-9.9,13.6-13.9,21.1c-0.9,1.8-1.7,3.6-2.2,5.5   c-0.3,0.8-0.5,1.7-0.5,2.5c-0.1,0.7,0,1.4,0.3,2.1c0.6,1.5,1.6,2.8,2.9,3.8c1.5,1.3,3.1,2.5,4.8,3.5c3.6,2.2,7.3,4.2,11.1,6   c3.8,1.9,7.8,4,11.7,6.3c2,1.3,4,2.6,5.9,4.1c2.1,1.7,3.9,3.8,5.2,6.2c0.8,1.4,1.3,2.9,1.6,4.4c0.3,1.6,0.3,3.3,0.2,4.9   c-0.5,3-1.8,5.9-3.6,8.4c-1.6,2-3.4,3.9-5.4,5.5c-1.7,1.5-3.5,2.9-5.4,4.3c-3.6,2.7-7.1,5.1-10.5,7.6c-6.7,4.7-12.9,10-18.7,15.8   c-2.6,2.6-5.1,5.5-7.4,8.4c9.9,14.6,19,29.7,27.1,45.3c29.6-57.3,63-90.3,84-122.3L182.7,151.5z"/>
	<path id="Path-2" d="M182.5,236.6c3.5-2.1,7-4.3,9-6.5c0.9-0.8,1.6-1.8,1.9-3c0.3-1,0.3-2.1-0.2-3c-1-2.4-4-5.2-7.1-7.6   s-6.8-4.6-10.5-6.8s-7.4-4.4-11.1-7.1c-1.9-1.4-3.7-2.9-5.4-4.6c-1.9-1.9-3.4-4.2-4.1-6.8c-0.4-1.4-0.5-2.8-0.3-4.3   c0.1-1.3,0.5-2.5,1-3.6c0.8-2.2,1.7-4.3,2.9-6.3c2.2-3.9,4.6-7.6,7.3-11.1c2.5-3.5,5.2-7,8.1-10.3c1.1-1.3,2.2-2.7,3.5-4L96,202   c12.2,18.5,28.5,37.5,45.9,61.5c2.2-2,4.4-3.9,6.8-5.7c7.1-5.5,14.6-10.5,22.5-14.9C175.2,240.7,179,238.6,182.5,236.6z"/>
	<path id="Path-3" d="M180,85.1c-30.6,0-55.4,24.8-55.4,55.4c0,7.6,1.6,15.2,4.6,22.2l46.6-29c2.6-1.6,5.8-1.6,8.4,0l46.7,29   c3.1-7,4.6-14.5,4.6-22.2C235.4,109.9,210.6,85.1,180,85.1z"/>
	<path id="Path-4" d="M180,36C122.3,35.9,75.5,82.7,75.4,140.4c0,0.1,0,0.1,0,0.2c0,17.9,4.8,33.1,12.5,47.8l27.7-17.3   c-4.6-9.5-7-20-7-30.6c0-39.4,31.9-71.3,71.3-71.3s71.3,31.9,71.3,71.3c0,10.6-2.4,21-7,30.6l27.7,17.3   c7.8-14.7,12.5-29.9,12.5-47.8C284.6,82.9,237.9,36.1,180.2,36C180.1,36,180.1,36,180,36z"/>
</g>
</g>
  </g>
</svg>
